<?xml version="1.0" encoding="UTF-8"?><svg id="b" xmlns="http://www.w3.org/2000/svg" viewBox="0 0 165.20169 85.03937"><g id="c"><g><path d="m30.56272,42.51781c0,5.22378.47251,10.33507,1.37248,15.30013-4.84501-3.36003-8.01751-8.95882-8.01751-15.30013,0-6.33753,3.17251-11.94007,8.01751-15.29635-.89997,4.96128-1.37248,10.07257-1.37248,15.29635Z" style="fill:#faa61a;"/><path d="m42.52156,23.91768c-3.93382,0-7.58259,1.21876-10.58636,3.30377-.89997,4.96128-1.37248,10.07257-1.37248,15.29635s.47251,10.33507,1.37248,15.30013c3.00378,2.08501,6.65254,3.30377,10.58636,3.30377,10.27133,0,18.60012-8.32882,18.60012-18.6039,0-10.27131-8.3288-18.60012-18.60012-18.60012Zm0,27.2402c-.51751,0-1.0238-.045-1.51503-.13502-.31874-2.79002-.47997-5.62877-.47997-8.50506,0-2.87251.16123-5.71128.47621-8.5013.49123-.09,1.00127-.135,1.51878-.135,4.77002,0,8.63628,3.86628,8.63628,8.6363s-3.86625,8.64008-8.63628,8.64008Z" style="fill:#002f52;"/><path d="m83.43297,53.37309c-4.64542,15.2554-18.82612,26.3525-35.59761,26.3525-1.80378,0-3.57754-.12751-5.31376-.37876-17.50519-2.50126-31.07652-17.19013-31.84905-35.19775-.01126-.27001-.02252-.53625-.02998-.80626-.00751-.27374-.01126-.54751-.01126-.82501,0-.27374.00375-.54749.01126-.82126.00746-.26999.01497-.54.02998-.80624.84751-16.85262,14.77892-30.26272,31.84905-30.26272,14.58107,0,26.86891,9.79207,30.6692,23.15344h.17569c-3.52517-14.64774-15.71111-25.92279-30.84489-28.08847-1.73631-.25127-3.51007-.37876-5.3176-.37876C17.34012,5.3138,1.10999,20.88017.05251,40.48155c-.01501.31126-.02998.62252-.03749.93751-.01126.36376-.01501.73126-.01501,1.09876,0,.36752.00375.73501.01501,1.09876.00751.31501.02248.62627.03749.93751,1.05749,22.53392,19.66517,40.4853,42.4691,40.4853,19.73031,0,36.31832-13.44393,41.11352-31.66628h-.20215Z" style="fill:#002f52;"/><path d="m37.204,5.3138c1.80754,0,3.58129.12749,5.3176.37876,15.13378,2.16567,27.31972,13.44072,30.84489,28.08847h3.34527c.33289-2.07698,1.31434-3.41073,2.16286-4.20468.96159-.90015,2.14665-1.50235,3.53121-1.81344C76.40808,11.55525,60.81553,0,42.52161,0,19.71767,0,1.10999,17.94765.05251,40.48155,1.10999,20.88017,17.34012,5.3138,37.204,5.3138Zm35.30299,48.05928c-4.44107,12.26628-16.18627,21.03496-29.98538,21.03496-17.07013,0-31.00154-13.40635-31.84905-30.25897.77253,18.00761,14.34385,32.69649,31.84905,35.19775,1.73622.25125,3.50997.37876,5.31376.37876,16.77148,0,30.95219-11.0971,35.59761-26.3525h-10.92598Z" style="fill:#faa61a;"/><path d="m69.94624,36.17467c-1.4253,0-2.65688.30579-3.69473.917-1.03822.61158-1.82777,1.47584-2.36867,2.59279-.5409,1.11732-.81153,2.40621-.81153,3.8663v.36951c0,2.09364.6775,3.79361,2.03212,5.09989s3.1271,1.95961,5.31779,1.95961c1.16969,0,2.26283-.22669,3.27871-.67969,1.01624-.45301,1.8014-1.06239,2.35549-1.82741l-2.03212-2.40163c-.79175.98511-1.89149,1.47767-3.29885,1.47767-.85328,0-1.54835-.22852-2.08485-.68592s-.88404-1.08637-1.04224-1.88692h8.84076v-1.72871c0-2.2253-.58045-3.9606-1.74171-5.20536s-2.74477-1.86714-4.75016-1.86714Zm2.13759,6.01689h-4.48648c.2461-1.72395,1.02027-2.5862,2.32216-2.5862.70386,0,1.24476.19592,1.62306.58722.3783.39148.55848.94337.54126,1.65602v.34296Zm13.64732-8.58991c.45703,0,.82215.03955,1.09498.11865l-.01318-3.2723c-.7566-.18475-1.4513-.27722-2.08485-.27722-1.73292,0-3.07876.44861-4.0375,1.34602-.95875.89722-1.43812,2.15956-1.43812,3.78701v1.13471h-2.07167v3.08773h2.07167v11.18947h4.45975v-11.18947h2.78432v-3.08773h-2.78432v-1.09516c0-1.16126.6731-1.74171,2.01894-1.74171Zm8.48041,2.57302c-1.42494,0-2.65651.30579-3.69473.917-1.03785.61158-1.82741,1.47584-2.3683,2.59279-.5409,1.11732-.81153,2.40621-.81153,3.8663v.36951c0,2.09364.67713,3.79361,2.03212,5.09989,1.35462,1.30628,3.1271,1.95961,5.31742,1.95961,1.17005,0,2.2632-.22669,3.27908-.67969,1.01624-.45301,1.8014-1.06239,2.35549-1.82741l-2.03212-2.40163c-.79175.98511-1.89149,1.47767-3.29885,1.47767-.85328,0-1.54835-.22852-2.08485-.68592s-.88404-1.08637-1.04224-1.88692h8.84076v-1.72871c0-2.2253-.58081-3.9606-1.74171-5.20536-1.16126-1.24476-2.74477-1.86714-4.75052-1.86714Zm2.13759,6.01689h-4.48612c.2461-1.72395,1.02027-2.5862,2.32216-2.5862.70386,0,1.24476.19592,1.62306.58722.3783.39148.55848.94337.5409,1.65602v.34296Zm14.63792-6.01689c-1.73329,0-3.09231.64655-4.07742,1.93965l-.14502-1.67579h-4.16971v14.2772h4.44657v-10.08113c.42224-.6861,1.06898-1.02924,1.93983-1.02924.76539,0,1.2931.16956,1.58351.50812.29004.33875.43543.86866.43543,1.58992v9.01233h4.45975v-9.19709c-.02637-1.78566-.40686-3.1227-1.14112-4.01132-.73462-.88843-1.84535-1.33265-3.33181-1.33265Zm11.27901,3.31863c.31677-.25946.70826-.38929,1.17445-.38929,1.20521,0,1.80763.57184,1.80763,1.71534h4.46012c0-1.38978-.57203-2.51149-1.71534-3.36477-1.14368-.85309-2.65688-1.27992-4.53922-1.27992-1.7505,0-3.16665.42444-4.24881,1.27332-1.08216.84907-1.62306,1.92866-1.62306,3.23934,0,.73902.18897,1.39436.56763,1.9662.37793.57184.92799,1.05781,1.64906,1.45808.72144.40027,1.63624.72364,2.74477.96973,1.10853.24646,1.86036.48395,2.25624.71265s.594.53229.594.91022c0,.39588-.15198.71741-.4552.96351-.30359.24646-.75879.36951-1.36598.36951-.65955,0-1.20045-.15198-1.62269-.4552-.42224-.30359-.64234-.78516-.65992-1.44508h-4.15652c0,.8357.26843,1.63185.80494,2.38844s1.28431,1.35462,2.24306,1.79445,2.0497.65992,3.27248.65992c1.83839,0,3.33621-.40906,4.49307-1.22718,1.1565-.81812,1.73512-1.87831,1.73512-3.1802,0-1.90871-1.07337-3.23275-3.21975-3.97177-.64197-.21973-1.38758-.40906-2.23647-.56726-.84888-.15839-1.46705-.36072-1.85377-.607-.38745-.24628-.58081-.56745-.58081-.96332,0-.3869.15857-.71027.47498-.96973Zm9.59296,11.22243h4.45975v-14.2772h-4.45975v14.2772Zm3.98477-19.5157c-.4574-.40448-1.0514-.607-1.78126-.607-.73023,0-1.32423.20252-1.78126.607-.45777.40467-.68628.92377-.68628,1.55714s.22852,1.15247.68628,1.55696c.45703.40467,1.05103.607,1.78126.607.72986,0,1.32386-.20233,1.78126-.607.4574-.40448.68628-.92359.68628-1.55696s-.22888-1.15247-.68628-1.55714Zm8.80963,14.22447l-2.21706-8.98597h-4.69742l4.65787,14.2772h4.53922l4.65787-14.2772h-4.68424l-2.25624,8.98597Zm20.54824-2.17732c0-2.2253-.58081-3.9606-1.74171-5.20536-1.16126-1.24476-2.74477-1.86714-4.75052-1.86714-1.42494,0-2.65651.30579-3.69473.917-1.03785.61158-1.82741,1.47584-2.3683,2.59279-.5409,1.11732-.81153,2.40621-.81153,3.8663v.36951c0,2.09364.67713,3.79361,2.03212,5.09989,1.35462,1.30628,3.1271,1.95961,5.31742,1.95961,1.17005,0,2.2632-.22669,3.27908-.67969,1.01624-.45301,1.8014-1.06239,2.35549-1.82741l-2.03212-2.40163c-.79175.98511-1.89149,1.47767-3.29885,1.47767-.85328,0-1.54835-.22852-2.08485-.68592s-.88404-1.08637-1.04224-1.88692h8.84076v-1.72871Zm-4.35465-1.05561h-4.48612c.2461-1.72395,1.02027-2.5862,2.32216-2.5862.70386,0,1.24476.19592,1.62306.58722.3783.39148.55848.94337.5409,1.65602v.34296Z" style="fill:#002f52;"/><path d="m94.86194,62.37652h1.02283v.94776c-.18714.17029-.47242.25562-.85511.25562-.44715,0-.77491-.15308-.98328-.45923-.20801-.30579-.31238-.76356-.31238-1.37293v-.36878c.00293-.58155.1051-1.02869.30615-1.34181.20142-.31311.48633-.46949.85547-.46949.30725,0,.54493.07251.71265.2179s.27649.38855.32703.7295h1.41688c-.06995-.69031-.31494-1.2096-.73572-1.55751s-1.01112-.52185-1.77138-.52185c-.51966,0-.97742.12085-1.37293.36255s-.69947.58704-.91187,1.03565-.31861.9734-.31861,1.57435l.00403.52808c.03369.87195.28931,1.55275.76722,2.04201.47791.4889,1.11659.73353,1.91603.73353.52002,0,.99793-.0769,1.43373-.23071.43616-.15344.76722-.35633.9939-.60791v-2.5071h-2.49465v1.01038Zm17.74195-.95472c.17175-.27905.25781-.63099.25781-1.05543,0-.58631-.20398-1.04005-.61194-1.36122-.40833-.3208-.97413-.48157-1.69813-.48157h-2.40236v6.10441h1.47181v-2.1592h.79651l1.0774,2.1592h1.57655v-.06299l-1.27479-2.46462c.36621-.17322.63538-.39954.80713-.67859Zm-1.42127-.30542c-.14099.14685-.35157.22046-.63099.22046h-.93055v-1.68129h.93055c.27686,0,.48633.07507.62879.22486.14282.15015.21387.35669.21387.62s-.07068.46875-.21167.61597Zm16.19909-2.30751c-.40503-.2461-.86646-.36914-1.38355-.36914-.52259,0-.98878.12451-1.3982.37317-.40943.24903-.72364.60169-.943,1.05872-.21973.45703-.32923.98438-.32923,1.58278v.34351c.01099.57605.12927,1.08619.35413,1.53041.22522.44458.5387.78626.94117,1.02503.40247.23914.8639.35852,1.38355.35852.52002,0,.98328-.12378,1.38978-.37097.40686-.24756.72071-.60022.94154-1.05872.22046-.4585.33106-.98511.33106-1.58058v-.28089c-.00293-.58704-.11682-1.10743-.34168-1.56153-.22486-.45447-.54017-.80457-.94556-1.0503Zm-.20947,2.91799c-.00293.59253-.10474,1.04664-.30615,1.36231-.20105.31604-.4878.47388-.8595.47388-.39112,0-.68592-.16077-.88441-.48194-.19849-.32154-.29773-.7815-.29773-1.37953l.00403-.44861c.04211-1.1067.43213-1.66005,1.16969-1.66005.37757,0,.66761.15711.87012.47168.20252.31421.30396.77491.30396,1.38136v.28089Zm15.45275.78406c0,.3772-.07837.64966-.23474.81739-.15674.16773-.38709.25159-.69178.25159-.60389,0-.91407-.33399-.93091-1.00196v-4.05435h-1.47987v4.02505c.00842.67054.22632,1.19898.65406,1.58461s1.01331.57862,1.75673.57862c.49182,0,.9181-.08679,1.27882-.26001.36035-.17322.63721-.42554.82984-.7566.19299-.33142.28931-.72327.28931-1.17591v-3.99576h-1.47145v3.98733Zm16.83484-2.99563c-.19702-.31714-.47535-.56177-.83423-.73389-.35926-.17175-.77234-.25781-1.2389-.25781h-2.43605v6.10441h1.47181v-2.07094h.93897c.74341,0,1.32826-.17835,1.75453-.53467s.63941-.8324.63941-1.4275c0-.40247-.09851-.76246-.29553-1.0796Zm-1.42127,1.69154c-.14942.14246-.36695.21387-.65186.21387h-.96424v-1.76075h.98109c.2655.00256.47498.08936.62879.26001.15344.17029.23035.39807.23035.68335,0,.25965-.07471.46106-.22412.60352Z" style="fill:#faa61a;"/></g></g></svg>