<?xml version="1.0" encoding="UTF-8"?><svg id="b" xmlns="http://www.w3.org/2000/svg" viewBox="0 0 85.03937 85.03937"><g id="c"><g><path d="m30.56272,42.51781c0,5.22378.47251,10.33507,1.37248,15.30013-4.84501-3.36003-8.01751-8.95882-8.01751-15.30013,0-6.33753,3.17251-11.94007,8.01751-15.29635-.89997,4.96128-1.37248,10.07257-1.37248,15.29635Z" style="fill:#faa61a;"/><path d="m42.52156,23.91768c-3.93382,0-7.58259,1.21876-10.58636,3.30377-.89997,4.96128-1.37248,10.07257-1.37248,15.29635s.47251,10.33507,1.37248,15.30013c3.00378,2.08501,6.65254,3.30377,10.58636,3.30377,10.27133,0,18.60012-8.32882,18.60012-18.6039,0-10.27131-8.3288-18.60012-18.60012-18.60012Zm0,27.2402c-.51751,0-1.0238-.045-1.51503-.13502-.31874-2.79002-.47997-5.62877-.47997-8.50506,0-2.87251.16123-5.71128.47621-8.5013.49123-.09,1.00127-.135,1.51878-.135,4.77002,0,8.63628,3.86628,8.63628,8.6363s-3.86625,8.64008-8.63628,8.64008Z" style="fill:#002f52;"/><path d="m85.03937,42.51781c0,.36752-.00375.73501-.01501,1.09876-.00751.31501-.01877.62627-.03749.93751-1.05749,19.60515-17.28762,35.17152-37.1515,35.17152-1.80378,0-3.57754-.12751-5.3138-.37876-17.50515-2.50126-31.07647-17.19013-31.849-35.19775.84751,16.85262,14.77887,30.25897,31.849,30.25897,17.33637,0,31.44397-13.83386,31.87894-31.06523.00751-.27374.01126-.54751.01126-.82501,0-.27374-.00375-.54749-.01126-.82126-.00746-.26999-.01497-.54-.02994-.80624-.77253-18.00388-14.34385-32.69273-31.849-35.19775-1.73626-.25127-3.51002-.37876-5.31756-.37876C17.34012,5.3138,1.10999,20.88017.05251,40.48155,1.10999,17.94765,19.71767,0,42.52156,0c23.11517,0,41.92152,18.44638,42.50279,41.41905.01126.36376.01501.73126.01501,1.09876Z" style="fill:#faa61a;"/><path d="m84.98686,44.55407c-1.05749,22.53392-19.66517,40.4853-42.4653,40.4853C19.71767,85.03937,1.10999,67.08799.05251,44.55407c-.01501-.31124-.02998-.62249-.03749-.93751-.01126-.36374-.01501-.73124-.01501-1.09876,0-.3675.00375-.73499.01501-1.09876.00751-.31499.02248-.62625.03749-.93751C1.10999,20.88017,17.34012,5.3138,37.204,5.3138c1.80754,0,3.58129.12749,5.31756.37876,17.50515,2.50502,31.07647,17.19386,31.849,35.19775-.84751-16.85262-14.78267-30.26272-31.849-30.26272-17.07013,0-31.00149,13.4101-31.849,30.26272-.01501.26624-.02252.53625-.02998.80624-.00751.27377-.01126.54751-.01126.82126,0,.2775.00375.55127.01126.82501.00746.27001.01872.53625.02998.80626.77253,18.00761,14.34385,32.69649,31.849,35.19775,1.73626.25125,3.51002.37876,5.3138.37876,19.86388,0,36.09401-15.56637,37.1515-35.17152Z" style="fill:#002f52;"/></g></g></svg>